<svg width="200" height="250" viewBox="0 0 200 250" xmlns="http://www.w3.org/2000/svg">
    <!-- 成长中的树 - 阶段2 -->
    
    <!-- 土壤 -->
    <ellipse cx="100" cy="230" rx="45" ry="15" fill="#8B6B61" />
    
    <!-- 主干 -->
    <path d="M100 230 C100 200 100 170 100 145" stroke="#6A8E50" stroke-width="8" stroke-linecap="round" />
    
    <!-- 主要分支 -->
    <path d="M100 170 C110 165 120 160 130 163" stroke="#6A8E50" stroke-width="6" stroke-linecap="round" />
    <path d="M100 190 C90 185 80 180 70 183" stroke="#6A8E50" stroke-width="6" stroke-linecap="round" />
    
    <!-- 树冠 -->
    <circle cx="100" cy="145" r="30" fill="#8EBD78" />
    <circle cx="130" cy="163" r="15" fill="#8EBD78" />
    <circle cx="70" cy="183" r="15" fill="#8EBD78" />
    
    <!-- 额外的叶子装饰 -->
    <circle cx="85" cy="135" r="12" fill="#ADE792" />
    <circle cx="115" cy="135" r="12" fill="#ADE792" />
    <circle cx="115" cy="155" r="10" fill="#ADE792" />
    <circle cx="85" cy="155" r="10" fill="#ADE792" />
    
    <!-- 脸部表情 - 开心的表情 -->
    <circle cx="95" cy="145" r="2.5" fill="#333" />
    <circle cx="105" cy="145" r="2.5" fill="#333" />
    <path d="M93 155 C96 158 104 158 107 155" stroke="#333" stroke-width="2" stroke-linecap="round" fill="none" />
    
    <!-- 小花装饰 -->
    <circle cx="120" cy="135" r="3" fill="#FF9E9E" />
    <circle cx="80" cy="135" r="3" fill="#FF9E9E" />
    <circle cx="110" cy="125" r="3" fill="#FFD893" />
</svg> 